NotoSansMono-Condensed.ufo
<glyph name="greater" format="2">
  <advance width="500"/>
  <unicode hex="003E"/>
  <outline>
    <contour>
      <point x="64" y="132" type="line"/>
      <point x="435" y="332" type="line"/>
      <point x="435" y="380" type="line"/>
      <point x="64" y="578" type="line"/>
      <point x="64" y="500" type="line"/>
      <point x="343" y="355" type="line"/>
      <point x="64" y="210" type="line"/>
    </contour>
  </outline>
</glyph>
<glyph name="Q" format="2">
  <advance width="500"/>
  <unicode hex="0051"/>
  <anchor x="250" y="-220" name="bottom"/>
  <anchor x="250" y="714" name="top"/>
  <anchor x="500" y="714" name="topright"/>
  <anchor x="250" y="357" name="center"/>
  <anchor x="249" y="10" name="ogonek"/>
  <anchor x="20" y="714" name="topleft"/>
  <outline>
    <contour>
      <point x="379" y="-180" type="line"/>
      <point x="469" y="-180" type="line"/>
      <point x="347" y="92" type="line"/>
      <point x="290" y="27" type="line"/>
    </contour>
    <component base="O"/>
  </outline>
</glyph>
<glyph name="micro" format="2">
  <advance width="500"/>
  <unicode hex="00B5"/>
  <anchor x="250" y="0" name="bottom"/>
  <anchor x="450" y="10" name="ogonek"/>
  <anchor x="250" y="536" name="top"/>
  <anchor x="480" y="536" name="topright"/>
  <outline>
    <contour>
      <point x="55" y="-240" type="line"/>
      <point x="137" y="-240" type="line"/>
      <point x="137" y="227" type="line"/>
      <point x="55" y="227" type="line"/>
    </contour>
    <component base="u"/>
  </outline>
</glyph>
<glyph name="Oslash" format="2">
  <advance width="500"/>
  <unicode hex="00D8"/>
  <anchor x="250" y="0" name="bottom"/>
  <anchor x="250" y="714" name="top"/>
  <anchor x="250" y="357" name="center"/>
  <anchor x="249" y="10" name="ogonek"/>
  <anchor x="20" y="714" name="topleft"/>
  <anchor x="500" y="714" name="topright"/>
  <outline>
    <contour>
      <point x="46" y="-40" type="line"/>
      <point x="500" y="717" type="line"/>
      <point x="444" y="750" type="line"/>
      <point x="-10" y="-8" type="line"/>
    </contour>
    <component base="O"/>
  </outline>
</glyph>
<glyph name="Lslash" format="2">
  <advance width="500"/>
  <unicode hex="0141"/>
  <anchor x="287" y="0" name="bottom"/>
  <anchor x="150" y="714" name="top"/>
  <anchor x="280" y="357" name="center"/>
  <anchor x="393" y="714" name="topright"/>
  <outline>
    <contour>
      <point x="59" y="255" type="line"/>
      <point x="355" y="439" type="line"/>
      <point x="318" y="498" type="line"/>
      <point x="23" y="314" type="line"/>
    </contour>
    <component base="L" xOffset="30"/>
  </outline>
</glyph>
<glyph name="lslash" format="2">
  <advance width="500"/>
  <unicode hex="0142"/>
  <anchor x="250" y="0" name="bottom"/>
  <anchor x="250" y="760" name="top"/>
  <anchor x="252" y="370" name="center"/>
  <anchor x="411" y="760" name="topright"/>
  <outline>
    <contour>
      <point x="136" y="242" type="line"/>
      <point x="412" y="434" type="line"/>
      <point x="373" y="490" type="line"/>
      <point x="98" y="298" type="line"/>
    </contour>
    <component base="l"/>
  </outline>
</glyph>
<glyph name="uni0191" format="2">
  <advance width="500"/>
  <unicode hex="0191"/>
  <anchor x="140" y="0" name="bottom"/>
  <anchor x="338" y="714" name="top"/>
  <anchor x="499" y="714" name="topright"/>
  <outline>
    <contour>
      <point x="132" y="-15" type="curve" smooth="yes"/>
      <point x="215" y="-15"/>
      <point x="269" y="36"/>
      <point x="269" y="133" type="curve" smooth="yes"/>
      <point x="269" y="330" type="line"/>
      <point x="468" y="330" type="line"/>
      <point x="468" y="408" type="line"/>
      <point x="269" y="408" type="line"/>
      <point x="269" y="636" type="line"/>
      <point x="480" y="636" type="line"/>
      <point x="480" y="714" type="line"/>
      <point x="185" y="714" type="line"/>
      <point x="185" y="133" type="line" smooth="yes"/>
      <point x="185" y="87"/>
      <point x="165" y="62"/>
      <point x="133" y="62" type="curve" smooth="yes"/>
      <point x="98" y="62"/>
      <point x="80" y="84"/>
      <point x="80" y="115" type="curve" smooth="yes"/>
      <point x="80" y="129"/>
      <point x="82" y="141"/>
      <point x="86" y="153" type="curve"/>
      <point x="7" y="173" type="line"/>
      <point x="1" y="160"/>
      <point x="-4" y="133"/>
      <point x="-4" y="112" type="curve" smooth="yes"/>
      <point x="-4" y="36"/>
      <point x="47" y="-15"/>
    </contour>
  </outline>
</glyph>
<glyph name="florin" format="2">
  <advance width="500"/>
  <unicode hex="0192"/>
  <anchor x="151" y="0" name="bottom"/>
  <anchor x="343" y="764" name="top"/>
  <anchor x="502" y="765" name="topright"/>
  <outline>
    <contour>
      <point x="151" y="-15" type="curve" smooth="yes"/>
      <point x="243" y="-15"/>
      <point x="291" y="42"/>
      <point x="291" y="137" type="curve" smooth="yes"/>
      <point x="291" y="464" type="line"/>
      <point x="463" y="464" type="line"/>
      <point x="463" y="536" type="line"/>
      <point x="291" y="536" type="line"/>
      <point x="291" y="587" type="line" smooth="yes"/>
      <point x="291" y="672"/>
      <point x="321" y="694"/>
      <point x="378" y="694" type="curve" smooth="yes"/>
      <point x="403" y="694"/>
      <point x="432" y="690"/>
      <point x="460" y="680" type="curve"/>
      <point x="480" y="748" type="line"/>
      <point x="449" y="758"/>
      <point x="410" y="765"/>
      <point x="367" y="765" type="curve" smooth="yes"/>
      <point x="264" y="765"/>
      <point x="209" y="724"/>
      <point x="209" y="586" type="curve" smooth="yes"/>
      <point x="209" y="539" type="line"/>
      <point x="70" y="523" type="line"/>
      <point x="70" y="464" type="line"/>
      <point x="209" y="464" type="line"/>
      <point x="209" y="137" type="line" smooth="yes"/>
      <point x="209" y="82"/>
      <point x="189" y="56"/>
      <point x="150" y="56" type="curve" smooth="yes"/>
      <point x="116" y="56"/>
      <point x="99" y="81"/>
      <point x="99" y="113" type="curve" smooth="yes"/>
      <point x="99" y="125"/>
      <point x="100" y="135"/>
      <point x="102" y="147" type="curve"/>
      <point x="26" y="165" type="line"/>
      <point x="21" y="153"/>
      <point x="17" y="134"/>
      <point x="17" y="117" type="curve" smooth="yes"/>
      <point x="17" y="36"/>
      <point x="70" y="-15"/>
    </contour>
  </outline>
</glyph>
<glyph name="uni019A" format="2">
  <advance width="500"/>
  <unicode hex="019A"/>
  <anchor x="250" y="0" name="bottom"/>
  <anchor x="250" y="760" name="top"/>
  <anchor x="252" y="370" name="center"/>
  <anchor x="411" y="760" name="topright"/>
  <outline>
    <contour>
      <point x="84" y="349" type="line"/>
      <point x="417" y="349" type="line"/>
      <point x="417" y="411" type="line"/>
      <point x="84" y="411" type="line"/>
    </contour>
    <component base="l"/>
  </outline>
</glyph>
<glyph name="uni019B" format="2">
  <advance width="500"/>
  <unicode hex="019B"/>
  <anchor x="260" y="0" name="bottom"/>
  <anchor x="266" y="766" name="top"/>
  <outline>
    <contour>
      <point x="129" y="530" type="line"/>
      <point x="354" y="610" type="line"/>
      <point x="334" y="665" type="line"/>
      <point x="110" y="586" type="line"/>
    </contour>
    <component base="lambda" xOffset="10"/>
  </outline>
</glyph>
<glyph name="uni01BB" format="2">
  <advance width="500"/>
  <unicode hex="01BB"/>
  <anchor x="264" y="0" name="bottom"/>
  <anchor x="250" y="714" name="top"/>
  <outline>
    <contour>
      <point x="93" y="323" type="line"/>
      <point x="428" y="323" type="line"/>
      <point x="428" y="385" type="line"/>
      <point x="93" y="385" type="line"/>
    </contour>
    <component base="two"/>
  </outline>
</glyph>
<glyph name="uni0246" format="2">
  <advance width="500"/>
  <unicode hex="0246"/>
  <anchor x="250" y="-75" name="bottom"/>
  <anchor x="260" y="760" name="top"/>
  <anchor x="386" y="10" name="ogonek"/>
  <anchor x="20" y="714" name="topleft"/>
  <anchor x="480" y="714" name="topright"/>
  <outline>
    <contour>
      <point x="143" y="-75" type="line"/>
      <point x="195" y="-75" type="line"/>
      <point x="387" y="760" type="line"/>
      <point x="335" y="760" type="line"/>
    </contour>
    <component base="E"/>
  </outline>
</glyph>
<glyph name="uni0247" format="2">
  <advance width="500"/>
  <unicode hex="0247"/>
  <anchor x="250" y="-208" name="bottom"/>
  <anchor x="250" y="760" name="top"/>
  <anchor x="269" y="10" name="ogonek"/>
  <anchor x="480" y="536" name="topright"/>
  <outline>
    <contour>
      <point x="109" y="-208" type="line"/>
      <point x="155" y="-208" type="line"/>
      <point x="349" y="760" type="line"/>
      <point x="303" y="760" type="line"/>
    </contour>
    <component base="e"/>
  </outline>
</glyph>
<glyph name="uni0249" format="2">
  <advance width="500"/>
  <unicode hex="0249"/>
  <anchor x="250" y="-245" name="bottom"/>
  <anchor x="286" y="765" name="top"/>
  <anchor x="430" y="765" name="topright"/>
  <outline>
    <contour>
      <point x="108" y="207" type="line"/>
      <point x="454" y="207" type="line"/>
      <point x="454" y="270" type="line"/>
      <point x="108" y="270" type="line"/>
    </contour>
    <component base="j"/>
  </outline>
</glyph>
<glyph name="uni024F" format="2">
  <advance width="500"/>
  <unicode hex="024F"/>
  <anchor x="250" y="-245" name="bottom"/>
  <anchor x="250" y="536" name="top"/>
  <anchor x="480" y="536" name="topright"/>
  <outline>
    <contour>
      <point x="25" y="309" type="line"/>
      <point x="485" y="309" type="line"/>
      <point x="485" y="362" type="line"/>
      <point x="25" y="362" type="line"/>
    </contour>
    <component base="y"/>
  </outline>
</glyph>
<glyph name="uni0284" format="2">
  <advance width="500"/>
  <unicode hex="0284"/>
  <anchor x="173" y="-240" name="bottom"/>
  <anchor x="318" y="765" name="top"/>
  <outline>
    <contour>
      <point x="89" y="261" type="line"/>
      <point x="404" y="261" type="line"/>
      <point x="404" y="323" type="line"/>
      <point x="89" y="323" type="line"/>
    </contour>
    <component base="uni0283"/>
  </outline>
</glyph>
<glyph name="Archaicsampi" format="2">
  <advance width="500"/>
  <unicode hex="0372"/>
  <anchor x="250" y="0" name="bottom"/>
  <anchor x="250" y="714" name="top"/>
  <anchor x="250" y="357" name="center"/>
  <anchor x="480" y="714" name="topright"/>
  <outline>
    <contour>
      <point x="393" y="453" type="line"/>
      <point x="465" y="453" type="line"/>
      <point x="465" y="714" type="line"/>
      <point x="393" y="714" type="line"/>
    </contour>
    <contour>
      <point x="35" y="453" type="line"/>
      <point x="107" y="453" type="line"/>
      <point x="107" y="714" type="line"/>
      <point x="35" y="714" type="line"/>
    </contour>
    <component base="T"/>
  </outline>
</glyph>
<glyph name="Epsilontonos" format="2">
  <advance width="500"/>
  <unicode hex="0388"/>
  <anchor x="293" y="0" name="bottom"/>
  <anchor x="287" y="714" name="top"/>
  <anchor x="53" y="714" name="topleft"/>
  <outline>
    <contour>
      <point x="113" y="0" type="line"/>
      <point x="440" y="0" type="line"/>
      <point x="440" y="78" type="line"/>
      <point x="197" y="78" type="line"/>
      <point x="197" y="331" type="line"/>
      <point x="422" y="331" type="line"/>
      <point x="422" y="409" type="line"/>
      <point x="197" y="409" type="line"/>
      <point x="197" y="636" type="line"/>
      <point x="440" y="636" type="line"/>
      <point x="440" y="714" type="line"/>
      <point x="113" y="714" type="line"/>
    </contour>
    <component base="tonos" xOffset="-265"/>
  </outline>
</glyph>
<glyph name="afii10081" format="2">
  <advance width="500"/>
  <unicode hex="043F"/>
  <anchor x="253" y="0" name="bottom"/>
  <anchor x="480" y="0" name="bottomright"/>
  <anchor x="253" y="536" name="top"/>
  <outline>
    <contour>
      <point x="60" y="0" type="line"/>
      <point x="141" y="0" type="line"/>
      <point x="141" y="466" type="line"/>
      <point x="359" y="466" type="line"/>
      <point x="359" y="0" type="line"/>
      <point x="440" y="0" type="line"/>
      <point x="440" y="536" type="line"/>
      <point x="60" y="536" type="line"/>
    </contour>
  </outline>
</glyph>
<glyph name="afii10091" format="2">
  <advance width="500"/>
  <unicode hex="0449"/>
  <anchor x="250" y="-145" name="bottom"/>
  <anchor x="250" y="536" name="top"/>
  <outline>
    <contour>
      <point x="424" y="-187" type="line"/>
      <point x="500" y="-187" type="line"/>
      <point x="500" y="69" type="line"/>
      <point x="415" y="69" type="line"/>
      <point x="415" y="0" type="line"/>
      <point x="424" y="0" type="line"/>
    </contour>
    <component base="afii10090"/>
  </outline>
</glyph>
<glyph name="afii10101" format="2">
  <advance width="500"/>
  <unicode hex="0454"/>
  <anchor x="250" y="0" name="bottom"/>
  <anchor x="250" y="536" name="top"/>
  <anchor x="480" y="536" name="topright"/>
  <outline>
    <contour>
      <point x="141" y="244" type="line"/>
      <point x="356" y="244" type="line"/>
      <point x="356" y="309" type="line"/>
      <point x="141" y="309" type="line"/>
    </contour>
    <component base="c"/>
  </outline>
</glyph>
<glyph name="uni048A" format="2">
  <advance width="500"/>
  <unicode hex="048A"/>
  <anchor x="252" y="-193" name="bottom"/>
  <anchor x="250" y="902" name="top"/>
  <anchor x="480" y="0" name="bottomright"/>
  <outline>
    <contour>
      <point x="353" y="-193" type="line"/>
      <point x="439" y="-193" type="line"/>
      <point x="500" y="74" type="line"/>
      <point x="399" y="74" type="line"/>
      <point x="399" y="0" type="line"/>
      <point x="410" y="0" type="line"/>
    </contour>
    <component base="afii10026"/>
    <component base="breve" yOffset="161"/>
  </outline>
</glyph>
<glyph name="uni048E" format="2">
  <advance width="500"/>
  <unicode hex="048E"/>
  <anchor x="250" y="0" name="bottom"/>
  <anchor x="250" y="714" name="top"/>
  <anchor x="500" y="714" name="topright"/>
  <outline>
    <contour>
      <point x="370" y="198" type="line"/>
      <point x="419" y="225" type="line"/>
      <point x="282" y="465" type="line"/>
      <point x="233" y="439" type="line"/>
    </contour>
    <component base="P"/>
  </outline>
</glyph>
<glyph name="uni0492" format="2">
  <advance width="500"/>
  <unicode hex="0492"/>
  <anchor x="250" y="0" name="bottom"/>
  <anchor x="250" y="714" name="top"/>
  <anchor x="480" y="0" name="bottomright"/>
  <outline>
    <contour>
      <point x="13" y="318" type="line"/>
      <point x="322" y="318" type="line"/>
      <point x="322" y="391" type="line"/>
      <point x="13" y="391" type="line"/>
    </contour>
    <component base="afii10020"/>
  </outline>
</glyph>
<glyph name="uni049C" format="2">
  <advance width="500"/>
  <unicode hex="049C"/>
  <anchor x="250" y="0" name="bottom"/>
  <anchor x="250" y="714" name="top"/>
  <anchor x="480" y="0" name="bottomright"/>
  <outline>
    <contour>
      <point x="200" y="94" type="line"/>
      <point x="247" y="94" type="line"/>
      <point x="247" y="643" type="line"/>
      <point x="200" y="643" type="line"/>
    </contour>
    <component base="afii10028"/>
  </outline>
</glyph>
<glyph name="uni049E" format="2">
  <advance width="500"/>
  <unicode hex="049E"/>
  <anchor x="250" y="0" name="bottom"/>
  <anchor x="250" y="714" name="top"/>
  <anchor x="480" y="0" name="bottomright"/>
  <outline>
    <contour>
      <point x="-8" y="566" type="line"/>
      <point x="217" y="566" type="line"/>
      <point x="217" y="633" type="line"/>
      <point x="-8" y="633" type="line"/>
    </contour>
    <component base="afii10028"/>
  </outline>
</glyph>
<glyph name="uni04AD" format="2">
  <advance width="500"/>
  <unicode hex="04AD"/>
  <anchor x="250" y="-187" name="bottom"/>
  <anchor x="250" y="536" name="top"/>
  <anchor x="480" y="0" name="bottomright"/>
  <outline>
    <contour>
      <point x="273" y="-187" type="line"/>
      <point x="352" y="-187" type="line"/>
      <point x="352" y="71" type="line"/>
      <point x="254" y="71" type="line"/>
      <point x="233" y="0" type="line"/>
      <point x="273" y="0" type="line"/>
    </contour>
    <component base="afii10084"/>
  </outline>
</glyph>
<glyph name="uni04B2" format="2">
  <advance width="500"/>
  <unicode hex="04B2"/>
  <anchor x="250" y="-193" name="bottom"/>
  <anchor x="250" y="714" name="top"/>
  <anchor x="480" y="714" name="topright"/>
  <outline>
    <contour>
      <point x="411" y="-193" type="line"/>
      <point x="493" y="-193" type="line"/>
      <point x="493" y="76" type="line"/>
      <point x="398" y="76" type="line"/>
      <point x="398" y="0" type="line"/>
      <point x="411" y="0" type="line"/>
    </contour>
    <component base="X"/>
  </outline>
</glyph>
<glyph name="uni04B6" format="2">
  <advance width="500"/>
  <unicode hex="04B6"/>
  <anchor x="250" y="-193" name="bottom"/>
  <anchor x="250" y="714" name="top"/>
  <anchor x="480" y="0" name="bottomright"/>
  <outline>
    <contour>
      <point x="413" y="-193" type="line"/>
      <point x="495" y="-193" type="line"/>
      <point x="495" y="76" type="line"/>
      <point x="389" y="76" type="line"/>
      <point x="384" y="0" type="line"/>
      <point x="413" y="0" type="line"/>
    </contour>
    <component base="afii10041"/>
  </outline>
</glyph>
<glyph name="uni04BF" format="2">
  <advance width="500"/>
  <unicode hex="04BF"/>
  <anchor x="320" y="-240" name="bottom"/>
  <anchor x="303" y="536" name="top"/>
  <outline>
    <contour>
      <point x="280" y="-187" type="line"/>
      <point x="355" y="-187" type="line"/>
      <point x="355" y="40" type="line"/>
      <point x="280" y="40" type="line"/>
    </contour>
    <component base="uni04BD"/>
  </outline>
</glyph>
<glyph name="uni04C6" format="2">
  <advance width="500"/>
  <unicode hex="04C6"/>
  <anchor x="250" y="-189" name="bottom"/>
  <anchor x="250" y="536" name="top"/>
  <outline>
    <contour>
      <point x="360" y="-187" type="line"/>
      <point x="442" y="-187" type="line"/>
      <point x="500" y="67" type="line"/>
      <point x="404" y="67" type="line"/>
      <point x="386" y="0" type="line"/>
      <point x="416" y="0" type="line"/>
    </contour>
    <component base="afii10077"/>
  </outline>
</glyph>
<glyph name="uni04C9" format="2">
  <advance width="500"/>
  <unicode hex="04C9"/>
  <anchor x="250" y="-195" name="bottom"/>
  <anchor x="250" y="714" name="top"/>
  <anchor x="250" y="370" name="center"/>
  <anchor x="20" y="714" name="topleft"/>
  <anchor x="500" y="714" name="topright"/>
  <outline>
    <contour>
      <point x="370" y="-193" type="line"/>
      <point x="456" y="-193" type="line"/>
      <point x="517" y="74" type="line"/>
      <point x="406" y="74" type="line"/>
      <point x="406" y="0" type="line"/>
      <point x="427" y="0" type="line"/>
    </contour>
    <component base="H"/>
  </outline>
</glyph>
<glyph name="uni04CC" format="2">
  <advance width="500"/>
  <unicode hex="04CC"/>
  <anchor x="250" y="-240" name="bottom"/>
  <anchor x="250" y="536" name="top"/>
  <anchor x="480" y="0" name="bottomright"/>
  <outline>
    <contour>
      <point x="291" y="-187" type="line"/>
      <point x="371" y="-187" type="line"/>
      <point x="371" y="0" type="line"/>
      <point x="400" y="0" type="line"/>
      <point x="390" y="71" type="line"/>
      <point x="291" y="71" type="line"/>
    </contour>
    <component base="afii10089"/>
  </outline>
</glyph>
<glyph name="uni04CD" format="2">
  <advance width="500"/>
  <unicode hex="04CD"/>
  <anchor x="250" y="-199" name="bottom"/>
  <anchor x="250" y="714" name="top"/>
  <anchor x="500" y="714" name="topright"/>
  <outline>
    <contour>
      <point x="353" y="-193" type="line"/>
      <point x="439" y="-193" type="line"/>
      <point x="500" y="74" type="line"/>
      <point x="399" y="74" type="line"/>
      <point x="399" y="0" type="line"/>
      <point x="410" y="0" type="line"/>
    </contour>
    <component base="M"/>
  </outline>
</glyph>
<glyph name="uni04F7" format="2">
  <advance width="500"/>
  <unicode hex="04F7"/>
  <anchor x="271" y="-240" name="bottom"/>
  <anchor x="306" y="536" name="top"/>
  <anchor x="480" y="0" name="bottomright"/>
  <outline>
    <contour>
      <point x="228" y="-187" type="line"/>
      <point x="307" y="-187" type="line"/>
      <point x="307" y="71" type="line"/>
      <point x="209" y="71" type="line"/>
      <point x="188" y="0" type="line"/>
      <point x="228" y="0" type="line"/>
    </contour>
    <component base="afii10068"/>
  </outline>
</glyph>
<glyph name="uni04FF" format="2">
  <advance width="500"/>
  <unicode hex="04FF"/>
  <anchor x="250" y="0" name="bottom"/>
  <anchor x="250" y="536" name="top"/>
  <anchor x="480" y="536" name="topright"/>
  <outline>
    <contour>
      <point x="69" y="242" type="line"/>
      <point x="429" y="242" type="line"/>
      <point x="429" y="309" type="line"/>
      <point x="69" y="309" type="line"/>
    </contour>
    <component base="x"/>
  </outline>
</glyph>
<glyph name="uni051E" format="2">
  <advance width="500"/>
  <unicode hex="051E"/>
  <anchor x="250" y="0" name="bottom"/>
  <anchor x="250" y="714" name="top"/>
  <anchor x="480" y="0" name="bottomright"/>
  <outline>
    <contour>
      <point x="398" y="467" type="line"/>
      <point x="439" y="518" type="line"/>
      <point x="236" y="685" type="line"/>
      <point x="195" y="634" type="line"/>
    </contour>
    <component base="afii10028"/>
  </outline>
</glyph>
<glyph name="uni0525" format="2">
  <advance width="500"/>
  <unicode hex="0525"/>
  <anchor x="250" y="-187" name="bottom"/>
  <anchor x="250" y="536" name="top"/>
  <anchor x="480" y="0" name="bottomright"/>
  <outline>
    <contour>
      <point x="423" y="-187" type="line"/>
      <point x="500" y="-187" type="line"/>
      <point x="500" y="69" type="line"/>
      <point x="414" y="69" type="line"/>
      <point x="414" y="0" type="line"/>
      <point x="423" y="0" type="line"/>
    </contour>
    <component base="afii10081"/>
  </outline>
</glyph>
<glyph name="uni0527" format="2">
  <advance width="500"/>
  <unicode hex="0527"/>
  <anchor x="250" y="-187" name="bottom"/>
  <anchor x="100" y="760" name="top"/>
  <anchor x="250" y="268" name="center"/>
  <anchor x="480" y="760" name="topright"/>
  <outline>
    <contour>
      <point x="423" y="-187" type="line"/>
      <point x="500" y="-187" type="line"/>
      <point x="500" y="69" type="line"/>
      <point x="414" y="69" type="line"/>
      <point x="414" y="0" type="line"/>
      <point x="423" y="0" type="line"/>
    </contour>
    <component base="h"/>
  </outline>
</glyph>
<glyph name="uni052E" format="2">
  <advance width="500"/>
  <unicode hex="052E"/>
  <anchor x="268" y="-190" name="bottom"/>
  <anchor x="314" y="714" name="top"/>
  <outline>
    <contour>
      <point x="433" y="-190" type="line"/>
      <point x="513" y="-190" type="line"/>
      <point x="513" y="74" type="line"/>
      <point x="426" y="74" type="line"/>
      <point x="390" y="0" type="line"/>
      <point x="433" y="0" type="line"/>
    </contour>
    <component base="afii10029"/>
  </outline>
</glyph>
<glyph name="uni052F" format="2">
  <advance width="500"/>
  <unicode hex="052F"/>
  <anchor x="276" y="-187" name="bottom"/>
  <anchor x="293" y="536" name="top"/>
  <outline>
    <contour>
      <point x="423" y="-187" type="line"/>
      <point x="500" y="-187" type="line"/>
      <point x="500" y="69" type="line"/>
      <point x="414" y="69" type="line"/>
      <point x="414" y="0" type="line"/>
      <point x="423" y="0" type="line"/>
    </contour>
    <component base="afii10077"/>
  </outline>
</glyph>
<glyph name="uni1ABA" format="2">
  <unicode hex="1ABA"/>
  <anchor x="0" y="0" name="_bottom"/>
  <anchor x="0" y="-233" name="bottom"/>
  <outline>
    <contour>
      <point x="-7" y="-181" type="line"/>
      <point x="81" y="40" type="line"/>
      <point x="21" y="40" type="line"/>
      <point x="-68" y="-181" type="line"/>
    </contour>
    <contour>
      <point x="-36" y="-233" type="curve" smooth="yes"/>
      <point x="-8" y="-233"/>
      <point x="8" y="-214"/>
      <point x="8" y="-179" type="curve" smooth="yes"/>
      <point x="8" y="-144"/>
      <point x="-8" y="-124"/>
      <point x="-36" y="-124" type="curve" smooth="yes"/>
      <point x="-66" y="-124"/>
      <point x="-82" y="-143"/>
      <point x="-82" y="-179" type="curve" smooth="yes"/>
      <point x="-82" y="-214"/>
      <point x="-65" y="-233"/>
    </contour>
  </outline>
</glyph>
<glyph name="uni1D06" format="2">
  <advance width="500"/>
  <unicode hex="1D06"/>
  <anchor x="250" y="0" name="bottom"/>
  <anchor x="250" y="536" name="top"/>
  <outline>
    <contour>
      <point x="0" y="241" type="line"/>
      <point x="282" y="241" type="line"/>
      <point x="282" y="304" type="line"/>
      <point x="0" y="304" type="line"/>
    </contour>
    <component base="uni1D05"/>
  </outline>
</glyph>
<glyph name="uni1D0C" format="2">
  <advance width="500"/>
  <unicode hex="1D0C"/>
  <anchor x="288" y="0" name="bottom"/>
  <anchor x="176" y="536" name="top"/>
  <outline>
    <contour>
      <point x="79" y="174" type="line"/>
      <point x="314" y="361" type="line"/>
      <point x="275" y="408" type="line"/>
      <point x="41" y="221" type="line"/>
    </contour>
    <component base="uni029F"/>
  </outline>
</glyph>
<glyph name="uni1D24" format="2">
  <advance width="499"/>
  <unicode hex="1D24"/>
  <anchor x="271" y="0" name="bottom"/>
  <anchor x="254" y="760" name="top"/>
  <outline>
    <contour>
      <point x="264" y="-11" type="curve" smooth="yes"/>
      <point x="334" y="-11"/>
      <point x="384" y="8"/>
      <point x="431" y="39" type="curve"/>
      <point x="404" y="103" type="line"/>
      <point x="369" y="80"/>
      <point x="324" y="60"/>
      <point x="271" y="60" type="curve" smooth="yes"/>
      <point x="195" y="60"/>
      <point x="147" y="99"/>
      <point x="147" y="168" type="curve" smooth="yes"/>
      <point x="147" y="262"/>
      <point x="209" y="301"/>
      <point x="300" y="331" type="curve"/>
      <point x="300" y="388" type="line"/>
      <point x="383" y="417"/>
      <point x="455" y="476"/>
      <point x="455" y="594" type="curve" smooth="yes"/>
      <point x="455" y="699"/>
      <point x="379" y="764"/>
      <point x="257" y="764" type="curve" smooth="yes"/>
      <point x="188" y="764"/>
      <point x="137" y="745"/>
      <point x="89" y="714" type="curve"/>
      <point x="118" y="650" type="line"/>
      <point x="152" y="673"/>
      <point x="197" y="692"/>
      <point x="250" y="692" type="curve" smooth="yes"/>
      <point x="326" y="692"/>
      <point x="374" y="654"/>
      <point x="374" y="585" type="curve" smooth="yes"/>
      <point x="374" y="491"/>
      <point x="312" y="452"/>
      <point x="221" y="421" type="curve"/>
      <point x="221" y="365" type="line"/>
      <point x="137" y="336"/>
      <point x="66" y="277"/>
      <point x="66" y="159" type="curve" smooth="yes"/>
      <point x="66" y="54"/>
      <point x="142" y="-11"/>
    </contour>
  </outline>
</glyph>
<glyph name="uni1D2F" format="2">
  <advance width="500"/>
  <unicode hex="1D2F"/>
  <anchor x="258.5" y="287.0" name="bottom"/>
  <anchor x="258.5" y="715.4" name="top"/>
  <anchor x="408.0" y="715.4" name="topright"/>
  <outline>
    <contour>
      <point x="79" y="489" type="line"/>
      <point x="420" y="489" type="line"/>
      <point x="420" y="533" type="line"/>
      <point x="79" y="533" type="line"/>
    </contour>
    <component base="B" xScale="0.65" yScale="0.6" xOffset="96" yOffset="287"/>
  </outline>
</glyph>
<glyph name="uni1D7E" format="2">
  <advance width="500"/>
  <unicode hex="1D7E"/>
  <anchor x="250" y="-1.0" name="bottom"/>
  <anchor x="250" y="536.108" name="top"/>
  <anchor x="499" y="536.108" name="topright"/>
  <outline>
    <contour>
      <point x="0" y="265" type="line"/>
      <point x="500" y="265" type="line"/>
      <point x="500" y="326" type="line"/>
      <point x="0" y="326" type="line"/>
    </contour>
    <component base="u.sc" yScale="0.939" yOffset="-1"/>
  </outline>
</glyph>
<glyph name="uni1D7F" format="2">
  <advance width="500"/>
  <unicode hex="1D7F"/>
  <anchor x="200" y="0" name="bottom"/>
  <anchor x="200" y="536" name="top"/>
  <outline>
    <contour>
      <point x="0" y="239" type="line"/>
      <point x="500" y="239" type="line"/>
      <point x="500" y="300" type="line"/>
      <point x="0" y="300" type="line"/>
    </contour>
    <component base="uni028A"/>
  </outline>
</glyph>
<glyph name="uni1D85" format="2">
  <advance width="500"/>
  <unicode hex="1D85"/>
  <anchor x="252" y="0" name="bottom"/>
  <anchor x="252" y="370" name="center"/>
  <anchor x="250" y="760" name="top"/>
  <anchor x="411" y="760" name="topright"/>
  <outline>
    <contour>
      <point x="279" y="-195" type="curve" smooth="yes"/>
      <point x="354" y="-195"/>
      <point x="391" y="-150"/>
      <point x="391" y="-62" type="curve" smooth="yes"/>
      <point x="391" y="42" type="line"/>
      <point x="303" y="42" type="line"/>
      <point x="303" y="0" type="line"/>
      <point x="315" y="0" type="line"/>
      <point x="315" y="-67" type="line" smooth="yes"/>
      <point x="315" y="-107"/>
      <point x="297" y="-126"/>
      <point x="265" y="-126" type="curve" smooth="yes"/>
      <point x="248" y="-126"/>
      <point x="231" y="-122"/>
      <point x="218" y="-117" type="curve"/>
      <point x="218" y="-185" type="line"/>
      <point x="232" y="-190"/>
      <point x="254" y="-195"/>
    </contour>
    <component base="l"/>
  </outline>
</glyph>
<glyph name="uni1D8C" format="2">
  <advance width="500"/>
  <unicode hex="1D8C"/>
  <anchor x="250" y="0" name="bottom"/>
  <anchor x="250" y="536" name="top"/>
  <anchor x="480" y="536" name="topright"/>
  <outline>
    <contour>
      <point x="280" y="0" type="line"/>
      <point x="393" y="0" type="line"/>
      <point x="393" y="72" type="line"/>
      <point x="280" y="72" type="line"/>
    </contour>
    <component base="v"/>
    <component base="cyrillicbighooklc" xOffset="115"/>
  </outline>
</glyph>
<glyph name="uni1D8F" format="2">
  <advance width="500"/>
  <unicode hex="1D8F"/>
  <anchor x="252" y="0" name="bottom"/>
  <anchor x="450" y="10" name="ogonek"/>
  <anchor x="265" y="536" name="top"/>
  <anchor x="480" y="536" name="topright"/>
  <outline>
    <contour>
      <point x="504" y="-199" type="curve" smooth="yes"/>
      <point x="529" y="-199"/>
      <point x="549" y="-196"/>
      <point x="563" y="-190" type="curve"/>
      <point x="563" y="-128" type="line"/>
      <point x="549" y="-134"/>
      <point x="536" y="-136"/>
      <point x="525" y="-136" type="curve" smooth="yes"/>
      <point x="494" y="-136"/>
      <point x="480" y="-116"/>
      <point x="480" y="-72" type="curve" smooth="yes"/>
      <point x="480" y="72" type="line"/>
      <point x="378" y="72" type="line"/>
      <point x="378" y="0" type="line"/>
      <point x="400" y="0" type="line"/>
      <point x="400" y="-75" type="line" smooth="yes"/>
      <point x="400" y="-161"/>
      <point x="434" y="-199"/>
    </contour>
    <component base="a"/>
  </outline>
</glyph>
<glyph name="uni1D92" format="2">
  <advance width="500"/>
  <unicode hex="1D92"/>
  <anchor x="260" y="0" name="bottom"/>
  <anchor x="269" y="10" name="ogonek"/>
  <anchor x="254" y="536" name="top"/>
  <anchor x="480" y="536" name="topright"/>
  <outline>
    <contour>
      <point x="458" y="-199" type="curve" smooth="yes"/>
      <point x="483" y="-199"/>
      <point x="503" y="-196"/>
      <point x="517" y="-190" type="curve"/>
      <point x="517" y="-128" type="line"/>
      <point x="503" y="-134"/>
      <point x="490" y="-136"/>
      <point x="479" y="-136" type="curve" smooth="yes"/>
      <point x="448" y="-136"/>
      <point x="434" y="-116"/>
      <point x="434" y="-72" type="curve" smooth="yes"/>
      <point x="434" y="104" type="line"/>
      <point x="363" y="10" type="line"/>
      <point x="363" y="-75" type="line" smooth="yes"/>
      <point x="363" y="-161"/>
      <point x="394" y="-199"/>
    </contour>
    <component base="e"/>
  </outline>
</glyph>
<glyph name="uni1D96" format="2">
  <advance width="500"/>
  <unicode hex="1D96"/>
  <anchor x="261" y="0" name="bottom"/>
  <anchor x="256" y="287" name="center"/>
  <anchor x="252" y="765" name="top"/>
  <anchor x="409" y="765" name="topright"/>
  <outline>
    <contour>
      <point x="416" y="-199" type="curve" smooth="yes"/>
      <point x="441" y="-199"/>
      <point x="461" y="-196"/>
      <point x="475" y="-190" type="curve"/>
      <point x="475" y="-128" type="line"/>
      <point x="461" y="-134"/>
      <point x="448" y="-136"/>
      <point x="437" y="-136" type="curve" smooth="yes"/>
      <point x="406" y="-136"/>
      <point x="392" y="-116"/>
      <point x="392" y="-72" type="curve" smooth="yes"/>
      <point x="392" y="48" type="line"/>
      <point x="321" y="10" type="line"/>
      <point x="321" y="-75" type="line" smooth="yes"/>
      <point x="321" y="-161"/>
      <point x="352" y="-199"/>
    </contour>
    <component base="i"/>
  </outline>
</glyph>
<glyph name="longsdiagonalstroke" format="2">
  <advance width="500"/>
  <unicode hex="1E9C"/>
  <anchor x="231" y="0" name="bottom"/>
  <anchor x="250" y="765" name="top"/>
  <outline>
    <contour>
      <point x="135" y="326" type="line"/>
      <point x="370" y="488" type="line"/>
      <point x="339" y="540" type="line"/>
      <point x="105" y="379" type="line"/>
    </contour>
    <component base="longs"/>
  </outline>
</glyph>
<glyph name="longshighstroke" format="2">
  <advance width="500"/>
  <unicode hex="1E9D"/>
  <anchor x="234" y="0" name="bottom"/>
  <anchor x="250" y="765" name="top"/>
  <outline>
    <contour>
      <point x="94" y="476" type="line"/>
      <point x="359" y="476" type="line"/>
      <point x="359" y="536" type="line"/>
      <point x="94" y="536" type="line"/>
    </contour>
    <component base="longs"/>
  </outline>
</glyph>
<glyph name="uni1FCA" format="2">
  <advance width="500"/>
  <unicode hex="1FCA"/>
  <anchor x="282" y="0" name="bottom"/>
  <anchor x="282" y="375" name="center"/>
  <anchor x="282" y="714" name="top"/>
  <anchor x="52" y="714" name="topleft"/>
  <outline>
    <contour>
      <point x="113" y="0" type="line"/>
      <point x="197" y="0" type="line"/>
      <point x="197" y="330" type="line"/>
      <point x="371" y="330" type="line"/>
      <point x="371" y="0" type="line"/>
      <point x="455" y="0" type="line"/>
      <point x="455" y="714" type="line"/>
      <point x="371" y="714" type="line"/>
      <point x="371" y="408" type="line"/>
      <point x="197" y="408" type="line"/>
      <point x="197" y="714" type="line"/>
      <point x="113" y="714" type="line"/>
    </contour>
    <component base="uni1FEF" xOffset="-185" yOffset="-53"/>
  </outline>
</glyph>
<glyph name="minussuperior" format="2">
  <advance width="500"/>
  <unicode hex="207B"/>
  <outline>
    <contour>
      <point x="115" y="428" type="line"/>
      <point x="384" y="428" type="line"/>
      <point x="384" y="481" type="line"/>
      <point x="115" y="481" type="line"/>
    </contour>
  </outline>
</glyph>
<glyph name="equalsuperior" format="2">
  <advance width="500"/>
  <unicode hex="207C"/>
  <outline>
    <contour>
      <point x="115" y="485" type="line"/>
      <point x="384" y="485" type="line"/>
      <point x="384" y="537" type="line"/>
      <point x="115" y="537" type="line"/>
    </contour>
    <contour>
      <point x="115" y="372" type="line"/>
      <point x="384" y="372" type="line"/>
      <point x="384" y="424" type="line"/>
      <point x="115" y="424" type="line"/>
    </contour>
  </outline>
</glyph>
<glyph name="uni20A1" format="2">
  <advance width="500"/>
  <unicode hex="20A1"/>
  <anchor x="287" y="0" name="bottom"/>
  <anchor x="308" y="714" name="top"/>
  <anchor x="480" y="714" name="topright"/>
  <outline>
    <contour>
      <point x="279" y="-57" type="line"/>
      <point x="318" y="-57" type="line"/>
      <point x="434" y="759" type="line"/>
      <point x="394" y="759" type="line"/>
    </contour>
    <contour>
      <point x="164" y="-57" type="line"/>
      <point x="203" y="-57" type="line"/>
      <point x="319" y="759" type="line"/>
      <point x="279" y="759" type="line"/>
    </contour>
    <component base="C"/>
  </outline>
</glyph>
<glyph name="uni20A6" format="2">
  <advance width="500"/>
  <unicode hex="20A6"/>
  <anchor x="248.0" y="0" name="bottom"/>
  <anchor x="252.58" y="714" name="top"/>
  <anchor x="477.0" y="714" name="topright"/>
  <outline>
    <contour>
      <point x="10" y="409" type="line"/>
      <point x="490" y="409" type="line"/>
      <point x="490" y="461" type="line"/>
      <point x="10" y="461" type="line"/>
    </contour>
    <contour>
      <point x="10" y="271" type="line"/>
      <point x="490" y="271" type="line"/>
      <point x="490" y="323" type="line"/>
      <point x="10" y="323" type="line"/>
    </contour>
    <component base="N" xScale="0.916" xOffset="19"/>
  </outline>
</glyph>
<glyph name="uni20B3" format="2">
  <advance width="500"/>
  <unicode hex="20B3"/>
  <anchor x="250" y="714" name="bottom"/>
  <anchor x="250" y="0" name="top"/>
  <anchor x="20" y="0" name="topright"/>
  <outline>
    <contour>
      <point x="3" y="381" type="line"/>
      <point x="497" y="381" type="line"/>
      <point x="497" y="433" type="line"/>
      <point x="3" y="433" type="line"/>
    </contour>
    <contour>
      <point x="3" y="238" type="line"/>
      <point x="497" y="238" type="line"/>
      <point x="497" y="291" type="line"/>
      <point x="3" y="291" type="line"/>
    </contour>
    <component base="V" xScale="-1" yScale="-1" xOffset="500" yOffset="714"/>
  </outline>
</glyph>
<glyph name="accountof" format="2">
  <advance width="500"/>
  <unicode hex="2100"/>
  <anchor x="119" y="388" name="bottom"/>
  <anchor x="123" y="722" name="top"/>
  <outline>
    <contour>
      <point x="424" y="-15" type="curve" smooth="yes"/>
      <point x="452" y="-15"/>
      <point x="476" y="-9"/>
      <point x="494" y="6" type="curve"/>
      <point x="494" y="61" type="line"/>
      <point x="473" y="47"/>
      <point x="450" y="40"/>
      <point x="428" y="40" type="curve" smooth="yes"/>
      <point x="371" y="40"/>
      <point x="343" y="83"/>
      <point x="343" y="154" type="curve" smooth="yes"/>
      <point x="343" y="229"/>
      <point x="374" y="272"/>
      <point x="429" y="272" type="curve" smooth="yes"/>
      <point x="446" y="272"/>
      <point x="463" y="268"/>
      <point x="484" y="257" type="curve"/>
      <point x="500" y="306" type="line"/>
      <point x="478" y="319"/>
      <point x="455" y="325"/>
      <point x="427" y="325" type="curve" smooth="yes"/>
      <point x="340" y="325"/>
      <point x="282" y="265"/>
      <point x="282" y="153" type="curve" smooth="yes"/>
      <point x="282" y="46"/>
      <point x="335" y="-15"/>
    </contour>
    <component base="ordfeminine" xOffset="-113"/>
    <component base="fraction" xOffset="282"/>
  </outline>
</glyph>
<glyph name="planckconstantovertwopi" format="2">
  <advance width="500"/>
  <unicode hex="210F"/>
  <outline>
    <contour>
      <point x="66" y="605" type="line"/>
      <point x="339" y="605" type="line"/>
      <point x="353" y="670" type="line"/>
      <point x="79" y="670" type="line"/>
    </contour>
    <component base="planckconstant"/>
  </outline>
</glyph>
<glyph name="versicle" format="2">
  <advance width="500"/>
  <unicode hex="2123"/>
  <anchor x="250" y="0" name="bottom"/>
  <anchor x="250" y="714" name="top"/>
  <anchor x="480" y="714" name="topright"/>
  <outline>
    <contour>
      <point x="42" y="-145" type="line"/>
      <point x="94" y="-145" type="line"/>
      <point x="307" y="809" type="line"/>
      <point x="88" y="862" type="line"/>
      <point x="75" y="814" type="line"/>
      <point x="245" y="775" type="line"/>
    </contour>
    <component base="V"/>
  </outline>
</glyph>
<glyph name="APLomegaunderbar" format="2">
  <advance width="500"/>
  <unicode hex="2379"/>
  <anchor x="252" y="0" name="bottom"/>
  <anchor x="252" y="536" name="top"/>
  <outline>
    <contour>
      <point x="34" y="-148" type="line"/>
      <point x="466" y="-148" type="line"/>
      <point x="466" y="-79" type="line"/>
      <point x="34" y="-79" type="line"/>
    </contour>
    <component base="omega" xOffset="2"/>
  </outline>
</glyph>
<glyph name="uni2C60" format="2">
  <advance width="500"/>
  <unicode hex="2C60"/>
  <anchor x="315" y="0" name="bottom"/>
  <anchor x="159" y="714" name="top"/>
  <anchor x="290" y="357" name="center"/>
  <anchor x="403" y="714" name="topright"/>
  <outline>
    <contour>
      <point x="40" y="405" type="line"/>
      <point x="353" y="405" type="line"/>
      <point x="353" y="462" type="line"/>
      <point x="40" y="462" type="line"/>
    </contour>
    <contour>
      <point x="40" y="270" type="line"/>
      <point x="353" y="270" type="line"/>
      <point x="353" y="327" type="line"/>
      <point x="40" y="327" type="line"/>
    </contour>
    <component base="L" xOffset="40"/>
  </outline>
</glyph>
<glyph name="uni2C61" format="2">
  <advance width="500"/>
  <unicode hex="2C61"/>
  <anchor x="250" y="0" name="bottom"/>
  <anchor x="250" y="760" name="top"/>
  <outline>
    <contour>
      <point x="210" y="0" type="line"/>
      <point x="290" y="0" type="line"/>
      <point x="290" y="270" type="line"/>
      <point x="369" y="270" type="line"/>
      <point x="369" y="322" type="line"/>
      <point x="290" y="322" type="line"/>
      <point x="290" y="410" type="line"/>
      <point x="369" y="410" type="line"/>
      <point x="369" y="462" type="line"/>
      <point x="290" y="462" type="line"/>
      <point x="290" y="760" type="line"/>
      <point x="210" y="760" type="line"/>
      <point x="210" y="462" type="line"/>
      <point x="131" y="462" type="line"/>
      <point x="131" y="410" type="line"/>
      <point x="210" y="410" type="line"/>
      <point x="210" y="322" type="line"/>
      <point x="131" y="322" type="line"/>
      <point x="131" y="270" type="line"/>
      <point x="210" y="270" type="line"/>
    </contour>
  </outline>
</glyph>
<glyph name="uni2C66" format="2">
  <advance width="500"/>
  <unicode hex="2C66"/>
  <anchor x="250" y="-208" name="bottom"/>
  <anchor x="250" y="760" name="top"/>
  <anchor x="229" y="290" name="center"/>
  <anchor x="480" y="679" name="topright"/>
  <outline>
    <contour>
      <point x="111" y="-208" type="line"/>
      <point x="157" y="-208" type="line"/>
      <point x="351" y="760" type="line"/>
      <point x="305" y="760" type="line"/>
    </contour>
    <component base="t"/>
  </outline>
</glyph>
<glyph name="brackhalfbottomleft" format="2">
  <advance width="500"/>
  <unicode hex="2E24"/>
  <outline>
    <contour>
      <point x="145" y="279" type="line"/>
      <point x="222" y="279" type="line"/>
      <point x="222" y="652" type="line"/>
      <point x="354" y="652" type="line"/>
      <point x="354" y="720" type="line"/>
      <point x="145" y="720" type="line"/>
    </contour>
  </outline>
</glyph>
<glyph name="uniA643" format="2">
  <advance width="500"/>
  <unicode hex="A643"/>
  <outline>
    <contour>
      <point x="113" y="246" type="line"/>
      <point x="386" y="246" type="line"/>
      <point x="386" y="310" type="line"/>
      <point x="113" y="310" type="line"/>
    </contour>
    <component base="uniA641"/>
  </outline>
</glyph>
<glyph name="uniA681" format="2">
  <advance width="500"/>
  <unicode hex="A681"/>
  <anchor x="251" y="-187" name="bottom"/>
  <anchor x="283" y="536" name="top"/>
  <outline>
    <contour>
      <point x="168" y="495" type="line"/>
      <point x="243" y="495" type="line"/>
      <point x="243" y="739" type="line"/>
      <point x="168" y="739" type="line"/>
    </contour>
    <component base="afii10069" xOffset="1"/>
  </outline>
</glyph>
<glyph name="uniA684" format="2">
  <advance width="1000"/>
  <unicode hex="A684"/>
  <anchor x="250" y="0" name="bottom_1"/>
  <anchor x="754" y="0" name="bottom_2"/>
  <anchor x="980" y="0" name="bottomright"/>
  <anchor x="250" y="714" name="top_1"/>
  <anchor x="750" y="714" name="top_2"/>
  <outline>
    <contour>
      <point x="182" y="333" type="line"/>
      <point x="582" y="333" type="line"/>
      <point x="582" y="408" type="line"/>
      <point x="182" y="408" type="line"/>
    </contour>
    <component base="afii10025"/>
    <component base="afii10028" xOffset="500"/>
  </outline>
</glyph>
<glyph name="uniA69E" format="2">
  <unicode hex="A69E"/>
  <outline>
    <contour>
      <point x="-27" y="123" type="line"/>
      <point x="27" y="123" type="line"/>
      <point x="27" y="271" type="line"/>
      <point x="114" y="280"/>
      <point x="158" y="347"/>
      <point x="158" y="448" type="curve" smooth="yes"/>
      <point x="158" y="549"/>
      <point x="113" y="615"/>
      <point x="27" y="625" type="curve"/>
      <point x="27" y="762" type="line"/>
      <point x="-27" y="762" type="line"/>
      <point x="-27" y="625" type="line"/>
      <point x="-116" y="616"/>
      <point x="-159" y="551"/>
      <point x="-159" y="448" type="curve" smooth="yes"/>
      <point x="-159" y="347"/>
      <point x="-112" y="279"/>
      <point x="-27" y="271" type="curve"/>
    </contour>
    <contour>
      <point x="-27" y="320" type="line"/>
      <point x="-72" y="326"/>
      <point x="-99" y="374"/>
      <point x="-99" y="448" type="curve" smooth="yes"/>
      <point x="-99" y="522"/>
      <point x="-71" y="568"/>
      <point x="-27" y="575" type="curve"/>
    </contour>
    <contour>
      <point x="27" y="320" type="curve"/>
      <point x="27" y="575" type="line"/>
      <point x="71" y="568"/>
      <point x="99" y="522"/>
      <point x="99" y="448" type="curve" smooth="yes"/>
      <point x="99" y="374"/>
      <point x="72" y="327"/>
    </contour>
  </outline>
</glyph>
<glyph name="uniA740" format="2">
  <advance width="500"/>
  <unicode hex="A740"/>
  <anchor x="250" y="714" name="top"/>
  <anchor x="259" y="0" name="bottom"/>
  <anchor x="480" y="714" name="topright"/>
  <outline>
    <contour>
      <point x="0" y="566" type="line"/>
      <point x="205" y="566" type="line"/>
      <point x="205" y="633" type="line"/>
      <point x="0" y="633" type="line"/>
    </contour>
    <component base="K"/>
  </outline>
</glyph>
<glyph name="uniA741" format="2">
  <advance width="500"/>
  <unicode hex="A741"/>
  <anchor x="273" y="0" name="bottom"/>
  <anchor x="280" y="760" name="top"/>
  <anchor x="480" y="760" name="topright"/>
  <outline>
    <contour>
      <point x="0" y="609" type="line"/>
      <point x="260" y="609" type="line"/>
      <point x="260" y="672" type="line"/>
      <point x="0" y="672" type="line"/>
    </contour>
    <component base="k"/>
  </outline>
</glyph>
<glyph name="uniA748" format="2">
  <advance width="500"/>
  <unicode hex="A748"/>
  <anchor x="310" y="0" name="bottom"/>
  <anchor x="290" y="357" name="center"/>
  <anchor x="159" y="714" name="top"/>
  <anchor x="403" y="714" name="topright"/>
  <outline>
    <contour>
      <point x="40" y="558" type="line"/>
      <point x="291" y="558" type="line"/>
      <point x="291" y="623" type="line"/>
      <point x="40" y="623" type="line"/>
    </contour>
    <component base="L" xOffset="40"/>
  </outline>
</glyph>
<glyph name="uniA749" format="2">
  <advance width="500"/>
  <unicode hex="A749"/>
  <anchor x="252" y="0" name="bottom"/>
  <anchor x="252" y="370" name="center"/>
  <anchor x="250" y="760" name="top"/>
  <anchor x="411" y="760" name="topright"/>
  <outline>
    <contour>
      <point x="115" y="551" type="line"/>
      <point x="388" y="551" type="line"/>
      <point x="388" y="615" type="line"/>
      <point x="115" y="615" type="line"/>
    </contour>
    <component base="l"/>
  </outline>
</glyph>
<glyph name="uniA74A" format="2">
  <advance width="500"/>
  <unicode hex="A74A"/>
  <anchor x="250" y="0" name="bottom"/>
  <anchor x="250" y="357" name="center"/>
  <anchor x="249" y="10" name="ogonek"/>
  <anchor x="250" y="714" name="top"/>
  <anchor x="20" y="714" name="topleft"/>
  <anchor x="500" y="714" name="topright"/>
  <outline>
    <contour>
      <point x="0" y="332" type="line"/>
      <point x="500" y="332" type="line"/>
      <point x="500" y="398" type="line"/>
      <point x="0" y="398" type="line"/>
    </contour>
    <component base="O"/>
  </outline>
</glyph>
<glyph name="uniA74B" format="2">
  <advance width="500"/>
  <unicode hex="A74B"/>
  <anchor x="250" y="0" name="bottom"/>
  <anchor x="250" y="268" name="center"/>
  <anchor x="250" y="10" name="ogonek"/>
  <anchor x="250" y="536" name="top"/>
  <anchor x="480" y="536" name="topright"/>
  <outline>
    <contour>
      <point x="0" y="245" type="line"/>
      <point x="500" y="245" type="line"/>
      <point x="500" y="309" type="line"/>
      <point x="0" y="309" type="line"/>
    </contour>
    <component base="o"/>
  </outline>
</glyph>
<glyph name="uniA751" format="2">
  <advance width="500"/>
  <unicode hex="A751"/>
  <anchor x="280" y="-240" name="bottom"/>
  <anchor x="280" y="536" name="top"/>
  <anchor x="480" y="536" name="topright"/>
  <outline>
    <contour>
      <point x="0" y="-158" type="line"/>
      <point x="309" y="-158" type="line"/>
      <point x="309" y="-95" type="line"/>
      <point x="0" y="-95" type="line"/>
    </contour>
    <component base="p"/>
  </outline>
</glyph>
<glyph name="uniA756" format="2">
  <advance width="500"/>
  <unicode hex="A756"/>
  <anchor x="250" y="-220" name="bottom"/>
  <anchor x="250" y="357" name="center"/>
  <anchor x="249" y="10" name="ogonek"/>
  <anchor x="250" y="714" name="top"/>
  <anchor x="20" y="714" name="topleft"/>
  <anchor x="500" y="714" name="topright"/>
  <outline>
    <contour>
      <point x="246" y="-158" type="line"/>
      <point x="524" y="-47" type="line"/>
      <point x="501" y="9" type="line"/>
      <point x="224" y="-102" type="line"/>
    </contour>
    <component base="Q"/>
  </outline>
</glyph>
<glyph name="uniA759" format="2">
  <advance width="500"/>
  <unicode hex="A759"/>
  <anchor x="240" y="-240" name="bottom"/>
  <anchor x="240" y="536" name="top"/>
  <anchor x="480" y="536" name="topright"/>
  <outline>
    <contour>
      <point x="238" y="-244" type="line"/>
      <point x="590" y="268" type="line" smooth="yes"/>
      <point x="624" y="317"/>
      <point x="640" y="362"/>
      <point x="640" y="410" type="curve" smooth="yes"/>
      <point x="640" y="492"/>
      <point x="594" y="536"/>
      <point x="500" y="536" type="curve"/>
      <point x="500" y="483" type="line"/>
      <point x="558" y="483"/>
      <point x="587" y="457"/>
      <point x="587" y="407" type="curve" smooth="yes"/>
      <point x="587" y="374"/>
      <point x="574" y="340"/>
      <point x="547" y="300" type="curve" smooth="yes"/>
      <point x="195" y="-213" type="line"/>
    </contour>
    <component base="q"/>
  </outline>
</glyph>
<glyph name="uniA75F" format="2">
  <advance width="500"/>
  <unicode hex="A75F"/>
  <anchor x="250" y="0" name="bottom"/>
  <anchor x="250" y="536" name="top"/>
  <anchor x="480" y="536" name="topright"/>
  <outline>
    <contour>
      <point x="51" y="-93" type="line"/>
      <point x="92" y="-93" type="line"/>
      <point x="289" y="639" type="line"/>
      <point x="245" y="639" type="line"/>
    </contour>
    <component base="v"/>
  </outline>
</glyph>
<glyph name="uniA772" format="2">
  <advance width="500"/>
  <unicode hex="A772"/>
  <anchor x="297" y="0" name="bottom"/>
  <anchor x="297" y="370" name="center"/>
  <anchor x="295" y="760" name="top"/>
  <anchor x="456" y="760" name="topright"/>
  <outline>
    <contour>
      <point x="30" y="-157" type="line"/>
      <point x="95" y="-157" type="line"/>
      <point x="217" y="230" type="line"/>
      <point x="152" y="230" type="line"/>
    </contour>
    <contour>
      <point x="30" y="0" type="line"/>
      <point x="296" y="0" type="line"/>
      <point x="296" y="71" type="line"/>
      <point x="30" y="71" type="line"/>
    </contour>
    <component base="l" xOffset="45"/>
  </outline>
</glyph>
<glyph name="uniA78A" format="2">
  <advance width="500"/>
  <unicode hex="A78A"/>
  <outline>
    <contour>
      <point x="75" y="363" type="line"/>
      <point x="425" y="363" type="line"/>
      <point x="425" y="415" type="line"/>
      <point x="75" y="415" type="line"/>
    </contour>
    <contour>
      <point x="75" y="217" type="line"/>
      <point x="425" y="217" type="line"/>
      <point x="425" y="269" type="line"/>
      <point x="75" y="269" type="line"/>
    </contour>
  </outline>
</glyph>
<glyph name="uniA78D" format="2">
  <advance width="500"/>
  <unicode hex="A78D"/>
  <outline>
    <contour>
      <point x="371" y="0" type="line"/>
      <point x="455" y="0" type="line"/>
      <point x="455" y="714" type="line"/>
      <point x="371" y="714" type="line"/>
      <point x="371" y="411" type="line"/>
      <point x="129" y="411" type="line"/>
      <point x="129" y="714" type="line"/>
      <point x="45" y="714" type="line"/>
      <point x="45" y="333" type="line"/>
      <point x="371" y="333" type="line"/>
    </contour>
  </outline>
</glyph>
<glyph name="uniA793" format="2">
  <advance width="500"/>
  <unicode hex="A793"/>
  <anchor x="317" y="0" name="bottom"/>
  <anchor x="312" y="536" name="top"/>
  <anchor x="507" y="536" name="topright"/>
  <outline>
    <contour>
      <point x="33" y="247" type="line"/>
      <point x="331" y="247" type="line"/>
      <point x="331" y="312" type="line"/>
      <point x="33" y="312" type="line"/>
    </contour>
    <component base="c" xOffset="27"/>
  </outline>
</glyph>
<glyph name="uniA7A0" format="2">
  <advance width="500"/>
  <unicode hex="A7A0"/>
  <anchor x="279" y="0" name="bottom"/>
  <anchor x="272" y="714" name="top"/>
  <anchor x="480" y="714" name="topright"/>
  <outline>
    <contour>
      <point x="0" y="377" type="line"/>
      <point x="500" y="514" type="line"/>
      <point x="500" y="576" type="line"/>
      <point x="0" y="440" type="line"/>
    </contour>
    <component base="G"/>
  </outline>
</glyph>
<glyph name="uniA7A2" format="2">
  <advance width="500"/>
  <unicode hex="A7A2"/>
  <anchor x="259" y="0" name="bottom"/>
  <anchor x="250" y="714" name="top"/>
  <anchor x="480" y="714" name="topright"/>
  <outline>
    <contour>
      <point x="240" y="358" type="line"/>
      <point x="500" y="429" type="line"/>
      <point x="500" y="491" type="line"/>
      <point x="225" y="417" type="line"/>
    </contour>
    <contour>
      <point x="0" y="292" type="line"/>
      <point x="119" y="323" type="line"/>
      <point x="119" y="387" type="line"/>
      <point x="0" y="355" type="line"/>
    </contour>
    <component base="K"/>
  </outline>
</glyph>
<glyph name="uniA7A5" format="2">
  <advance width="500"/>
  <unicode hex="A7A5"/>
  <anchor x="254" y="0" name="bottom"/>
  <anchor x="261" y="536" name="top"/>
  <anchor x="480" y="536" name="topright"/>
  <outline>
    <contour>
      <point x="0" y="166" type="line"/>
      <point x="500" y="292" type="line"/>
      <point x="500" y="358" type="line"/>
      <point x="0" y="231" type="line"/>
    </contour>
    <component base="n"/>
  </outline>
</glyph>
<glyph name="uniA7A6" format="2">
  <advance width="500"/>
  <unicode hex="A7A6"/>
  <anchor x="262" y="0" name="bottom"/>
  <anchor x="250" y="714" name="top"/>
  <anchor x="480" y="714" name="topright"/>
  <outline>
    <contour>
      <point x="0" y="402" type="line"/>
      <point x="500" y="539" type="line"/>
      <point x="500" y="601" type="line"/>
      <point x="0" y="465" type="line"/>
    </contour>
    <component base="R"/>
  </outline>
</glyph>
<glyph name="uniA7A8" format="2">
  <advance width="500"/>
  <unicode hex="A7A8"/>
  <anchor x="250" y="0" name="bottom"/>
  <anchor x="260" y="714" name="top"/>
  <anchor x="480" y="714" name="topright"/>
  <outline>
    <contour>
      <point x="0" y="265" type="line"/>
      <point x="500" y="402" type="line"/>
      <point x="500" y="464" type="line"/>
      <point x="0" y="328" type="line"/>
    </contour>
    <component base="S"/>
  </outline>
</glyph>
<glyph name="uniA7AE" format="2">
  <advance width="500"/>
  <unicode hex="A7AE"/>
  <anchor x="251" y="0" name="bottom"/>
  <anchor x="251" y="714" name="top"/>
  <outline>
    <contour>
      <point x="458" y="714" type="line"/>
      <point x="42" y="714" type="line"/>
      <point x="42" y="668" type="line"/>
      <point x="209" y="653" type="line"/>
      <point x="209" y="61" type="line"/>
      <point x="42" y="46" type="line"/>
      <point x="42" y="0" type="line"/>
      <point x="458" y="0" type="line"/>
      <point x="458" y="46" type="line"/>
      <point x="291" y="61" type="line"/>
      <point x="291" y="653" type="line"/>
      <point x="458" y="668" type="line"/>
    </contour>
  </outline>
</glyph>
<glyph name="uniA7B4" format="2">
  <advance width="500"/>
  <unicode hex="A7B4"/>
  <anchor x="250" y="0" name="bottom"/>
  <anchor x="250" y="714" name="top"/>
  <anchor x="480" y="714" name="topright"/>
  <outline>
    <contour>
      <point x="65" y="-240" type="line"/>
      <point x="145" y="-240" type="line"/>
      <point x="145" y="46" type="line"/>
      <point x="65" y="46" type="line"/>
    </contour>
    <component base="B"/>
  </outline>
</glyph>
<glyph name="uniA7B8" format="2">
  <advance width="500"/>
  <unicode hex="A7B8"/>
  <anchor x="250" y="0" name="bottom"/>
  <anchor x="450" y="10" name="ogonek"/>
  <anchor x="250" y="714" name="top"/>
  <anchor x="480" y="714" name="topright"/>
  <outline>
    <contour>
      <point x="95" y="-50" type="line"/>
      <point x="493" y="727" type="line"/>
      <point x="443" y="754" type="line"/>
      <point x="44" y="-25" type="line"/>
    </contour>
    <component base="U"/>
  </outline>
</glyph>
<glyph name="uniA7B9" format="2">
  <advance width="500"/>
  <unicode hex="A7B9"/>
  <anchor x="250" y="0" name="bottom"/>
  <anchor x="450" y="10" name="ogonek"/>
  <anchor x="250" y="536" name="top"/>
  <anchor x="480" y="536" name="topright"/>
  <outline>
    <contour>
      <point x="93" y="-70" type="line"/>
      <point x="474" y="558" type="line"/>
      <point x="426" y="586" type="line"/>
      <point x="45" y="-42" type="line"/>
    </contour>
    <component base="u"/>
  </outline>
</glyph>
<glyph name="uniA7C9" format="2">
  <advance width="500"/>
  <unicode hex="A7C9"/>
  <anchor x="250" y="0" name="bottom"/>
  <anchor x="260" y="714" name="top"/>
  <anchor x="480" y="714" name="topright"/>
  <outline>
    <contour>
      <point x="23" y="335" type="line"/>
      <point x="492" y="335" type="line"/>
      <point x="492" y="400" type="line"/>
      <point x="23" y="400" type="line"/>
    </contour>
    <component base="S"/>
  </outline>
</glyph>
<glyph name="uniA7FA" format="2">
  <advance width="500"/>
  <unicode hex="A7FA"/>
  <anchor x="250" y="0" name="bottom"/>
  <anchor x="250" y="536" name="top"/>
  <outline>
    <contour>
      <point x="62" y="0" type="line"/>
      <point x="438" y="0" type="line"/>
      <point x="438" y="537" type="line"/>
      <point x="361" y="537" type="line"/>
      <point x="361" y="66" type="line"/>
      <point x="288" y="66" type="line"/>
      <point x="288" y="537" type="line"/>
      <point x="212" y="537" type="line"/>
      <point x="212" y="66" type="line"/>
      <point x="139" y="66" type="line"/>
      <point x="139" y="537" type="line"/>
      <point x="62" y="537" type="line"/>
    </contour>
  </outline>
</glyph>
<glyph name="uniA7FB" format="2">
  <advance width="500"/>
  <unicode hex="A7FB"/>
  <outline>
    <contour>
      <point x="353" y="0" type="line"/>
      <point x="437" y="0" type="line"/>
      <point x="437" y="714" type="line"/>
      <point x="62" y="714" type="line"/>
      <point x="62" y="636" type="line"/>
      <point x="353" y="636" type="line"/>
      <point x="353" y="383" type="line"/>
      <point x="74" y="383" type="line"/>
      <point x="74" y="305" type="line"/>
      <point x="353" y="305" type="line"/>
    </contour>
  </outline>
</glyph>
<glyph name="uniAB39" format="2">
  <advance width="500"/>
  <unicode hex="AB39"/>
  <anchor x="252" y="0" name="bottom"/>
  <anchor x="252" y="370" name="center"/>
  <anchor x="250" y="760" name="top"/>
  <anchor x="411" y="760" name="topright"/>
  <outline>
    <contour>
      <point x="251" y="216" type="curve" smooth="yes"/>
      <point x="353" y="216"/>
      <point x="424" y="285"/>
      <point x="424" y="381" type="curve" smooth="yes"/>
      <point x="424" y="475"/>
      <point x="355" y="546"/>
      <point x="251" y="546" type="curve" smooth="yes"/>
      <point x="148" y="546"/>
      <point x="78" y="477"/>
      <point x="78" y="381" type="curve" smooth="yes"/>
      <point x="78" y="285"/>
      <point x="145" y="216"/>
    </contour>
    <contour>
      <point x="252" y="269" type="curve" smooth="yes"/>
      <point x="180" y="269"/>
      <point x="136" y="319"/>
      <point x="136" y="381" type="curve" smooth="yes"/>
      <point x="136" y="444"/>
      <point x="180" y="493"/>
      <point x="252" y="493" type="curve" smooth="yes"/>
      <point x="323" y="493"/>
      <point x="368" y="444"/>
      <point x="368" y="381" type="curve" smooth="yes"/>
      <point x="368" y="319"/>
      <point x="323" y="269"/>
    </contour>
    <component base="l"/>
  </outline>
</glyph>
<glyph name="uniAB41" format="2">
  <advance width="500"/>
  <unicode hex="AB41"/>
  <anchor x="252" y="534" name="bottom"/>
  <anchor x="252" y="-2" name="top"/>
  <outline>
    <contour>
      <point x="271" y="-35" type="line"/>
      <point x="464" y="548" type="line"/>
      <point x="416" y="565" type="line"/>
      <point x="224" y="-19" type="line"/>
    </contour>
    <component base="oe" xScale="-1" yScale="-1" xOffset="502" yOffset="534"/>
  </outline>
</glyph>
<glyph name="uniAB42" format="2">
  <advance width="500"/>
  <unicode hex="AB42"/>
  <anchor x="252" y="534" name="bottom"/>
  <anchor x="252" y="-2" name="top"/>
  <outline>
    <contour>
      <point x="237" y="211" type="line"/>
      <point x="443" y="211" type="line"/>
      <point x="443" y="283" type="line"/>
      <point x="237" y="283" type="line"/>
    </contour>
    <component base="oe" xScale="-1" yScale="-1" xOffset="502" yOffset="534"/>
  </outline>
</glyph>
<glyph name="f_f_i" format="2">
  <advance width="1000"/>
  <unicode hex="FB03"/>
  <anchor x="836" y="0" name="bottom _3"/>
  <anchor x="163" y="0" name="bottom_1"/>
  <anchor x="492" y="0" name="bottom_2"/>
  <anchor x="334" y="0" name="caret_1"/>
  <anchor x="668" y="0" name="caret_2"/>
  <anchor x="163" y="765" name="top_1"/>
  <anchor x="491" y="765" name="top_2"/>
  <anchor x="836" y="765" name="top_3"/>
  <outline>
    <contour>
      <point x="123" y="0" type="line"/>
      <point x="213" y="0" type="line"/>
      <point x="213" y="461" type="line"/>
      <point x="453" y="461" type="line"/>
      <point x="453" y="0" type="line"/>
      <point x="543" y="0" type="line"/>
      <point x="543" y="461" type="line"/>
      <point x="792" y="461" type="line"/>
      <point x="792" y="0" type="line"/>
      <point x="882" y="0" type="line"/>
      <point x="882" y="536" type="line"/>
      <point x="543" y="536" type="line"/>
      <point x="543" y="585" type="line" smooth="yes"/>
      <point x="543" y="668"/>
      <point x="583" y="691"/>
      <point x="633" y="691" type="curve" smooth="yes"/>
      <point x="668" y="691"/>
      <point x="694" y="684"/>
      <point x="721" y="676" type="curve"/>
      <point x="741" y="745" type="line"/>
      <point x="709" y="756"/>
      <point x="681" y="765"/>
      <point x="628" y="765" type="curve" smooth="yes"/>
      <point x="531" y="765"/>
      <point x="453" y="724"/>
      <point x="453" y="597" type="curve" smooth="yes"/>
      <point x="453" y="536" type="line"/>
      <point x="213" y="536" type="line"/>
      <point x="213" y="585" type="line" smooth="yes"/>
      <point x="213" y="668"/>
      <point x="253" y="691"/>
      <point x="323" y="691" type="curve" smooth="yes"/>
      <point x="362" y="691"/>
      <point x="405" y="684"/>
      <point x="432" y="676" type="curve"/>
      <point x="452" y="745" type="line"/>
      <point x="420" y="755"/>
      <point x="376" y="765"/>
      <point x="318" y="765" type="curve" smooth="yes"/>
      <point x="201" y="765"/>
      <point x="123" y="724"/>
      <point x="123" y="597" type="curve" smooth="yes"/>
      <point x="123" y="536" type="line"/>
      <point x="20" y="523" type="line"/>
      <point x="20" y="461" type="line"/>
      <point x="123" y="461" type="line"/>
    </contour>
    <contour>
      <point x="828" y="633" type="curve" smooth="yes"/>
      <point x="862" y="633"/>
      <point x="891" y="654"/>
      <point x="891" y="696" type="curve" smooth="yes"/>
      <point x="891" y="740"/>
      <point x="862" y="760"/>
      <point x="828" y="760" type="curve" smooth="yes"/>
      <point x="793" y="760"/>
      <point x="765" y="740"/>
      <point x="765" y="696" type="curve" smooth="yes"/>
      <point x="765" y="654"/>
      <point x="793" y="633"/>
    </contour>
  </outline>
</glyph>
<glyph name="longs_t" format="2">
  <advance width="500"/>
  <unicode hex="FB05"/>
  <anchor x="122" y="0" name="bottom"/>
  <anchor x="104" y="0" name="bottom_1"/>
  <anchor x="316" y="0" name="bottom_2"/>
  <anchor x="214" y="0" name="caret_1"/>
  <anchor x="318" y="290" name="center"/>
  <anchor x="209" y="765" name="top"/>
  <anchor x="104" y="765" name="top_1"/>
  <anchor x="316" y="765" name="top_2"/>
  <anchor x="499" y="679" name="topright"/>
  <outline>
    <contour>
      <point x="399" y="-10" type="curve" smooth="yes"/>
      <point x="432" y="-10"/>
      <point x="457" y="-4"/>
      <point x="476" y="4" type="curve"/>
      <point x="476" y="77" type="line"/>
      <point x="458" y="67"/>
      <point x="430" y="63"/>
      <point x="414" y="63" type="curve" smooth="yes"/>
      <point x="371" y="63"/>
      <point x="356" y="92"/>
      <point x="356" y="157" type="curve" smooth="yes"/>
      <point x="356" y="464" type="line"/>
      <point x="476" y="464" type="line"/>
      <point x="476" y="536" type="line"/>
      <point x="357" y="536" type="line"/>
      <point x="357" y="658" type="line"/>
      <point x="340" y="713"/>
      <point x="299" y="765"/>
      <point x="209" y="765" type="curve" smooth="yes"/>
      <point x="104" y="765"/>
      <point x="60" y="694"/>
      <point x="60" y="591" type="curve" smooth="yes"/>
      <point x="60" y="0" type="line"/>
      <point x="144" y="0" type="line"/>
      <point x="144" y="594" type="line" smooth="yes"/>
      <point x="144" y="665"/>
      <point x="169" y="691"/>
      <point x="209" y="691" type="curve" smooth="yes"/>
      <point x="245" y="691"/>
      <point x="266" y="670"/>
      <point x="274" y="647" type="curve"/>
      <point x="274" y="539" type="line"/>
      <point x="219" y="515" type="line"/>
      <point x="219" y="464" type="line"/>
      <point x="274" y="464" type="line"/>
      <point x="274" y="143" type="line" smooth="yes"/>
      <point x="274" y="27"/>
      <point x="316" y="-10"/>
    </contour>
  </outline>
</glyph>
<glyph name="s_t" format="2">
  <advance width="1000"/>
  <unicode hex="FB06"/>
  <anchor x="256" y="0" name="bottom"/>
  <anchor x="242" y="0" name="bottom_1"/>
  <anchor x="728" y="0" name="bottom_2"/>
  <anchor x="540" y="0" name="caret_1"/>
  <anchor x="729" y="290" name="center"/>
  <anchor x="256" y="536" name="top"/>
  <anchor x="242" y="536" name="top_1"/>
  <anchor x="728" y="765" name="top_2"/>
  <anchor x="980" y="679" name="topright"/>
  <outline>
    <contour>
      <point x="842" y="-10" type="curve" smooth="yes"/>
      <point x="875" y="-10"/>
      <point x="912" y="-5"/>
      <point x="942" y="4" type="curve"/>
      <point x="942" y="77" type="line"/>
      <point x="909" y="67"/>
      <point x="879" y="63"/>
      <point x="857" y="63" type="curve" smooth="yes"/>
      <point x="796" y="63"/>
      <point x="767" y="92"/>
      <point x="767" y="157" type="curve" smooth="yes"/>
      <point x="767" y="464" type="line"/>
      <point x="945" y="464" type="line"/>
      <point x="945" y="536" type="line"/>
      <point x="769" y="536" type="line"/>
      <point x="769" y="675" type="line"/>
      <point x="729" y="719"/>
      <point x="635" y="765"/>
      <point x="518" y="765" type="curve" smooth="yes"/>
      <point x="377" y="765"/>
      <point x="306" y="698"/>
      <point x="306" y="606" type="curve" smooth="yes"/>
      <point x="306" y="567"/>
      <point x="319" y="538"/>
      <point x="338" y="513" type="curve"/>
      <point x="417" y="513" type="line"/>
      <point x="391" y="539"/>
      <point x="385" y="570"/>
      <point x="385" y="592" type="curve" smooth="yes"/>
      <point x="385" y="649"/>
      <point x="424" y="691"/>
      <point x="518" y="691" type="curve" smooth="yes"/>
      <point x="583" y="691"/>
      <point x="647" y="671"/>
      <point x="685" y="638" type="curve"/>
      <point x="685" y="539" type="line"/>
      <point x="550" y="515" type="line"/>
      <point x="550" y="464" type="line"/>
      <point x="685" y="464" type="line"/>
      <point x="685" y="143" type="line" smooth="yes"/>
      <point x="685" y="27"/>
      <point x="751" y="-10"/>
    </contour>
    <contour>
      <point x="232" y="-10" type="curve" smooth="yes"/>
      <point x="363" y="-10"/>
      <point x="429" y="43"/>
      <point x="429" y="142" type="curve" smooth="yes"/>
      <point x="429" y="232"/>
      <point x="374" y="262"/>
      <point x="292" y="303" type="curve" smooth="yes"/>
      <point x="202" y="348"/>
      <point x="168" y="366"/>
      <point x="168" y="408" type="curve" smooth="yes"/>
      <point x="168" y="451"/>
      <point x="204" y="476"/>
      <point x="269" y="476" type="curve" smooth="yes"/>
      <point x="306" y="476"/>
      <point x="341" y="468"/>
      <point x="388" y="446" type="curve"/>
      <point x="417" y="513" type="line"/>
      <point x="367" y="537"/>
      <point x="324" y="547"/>
      <point x="271" y="547" type="curve" smooth="yes"/>
      <point x="154" y="547"/>
      <point x="86" y="498"/>
      <point x="86" y="405" type="curve" smooth="yes"/>
      <point x="86" y="320"/>
      <point x="144" y="288"/>
      <point x="228" y="245" type="curve" smooth="yes"/>
      <point x="326" y="195"/>
      <point x="347" y="182"/>
      <point x="347" y="140" type="curve" smooth="yes"/>
      <point x="347" y="94"/>
      <point x="322" y="61"/>
      <point x="238" y="61" type="curve" smooth="yes"/>
      <point x="177" y="61"/>
      <point x="122" y="79"/>
      <point x="79" y="102" type="curve"/>
      <point x="79" y="24" type="line"/>
      <point x="117" y="2"/>
      <point x="169" y="-10"/>
    </contour>
  </outline>
</glyph>
<glyph name="eth.sc" format="2">
  <advance width="500"/>
  <anchor x="250" y="0" name="bottom"/>
  <anchor x="250" y="572" name="top"/>
  <anchor x="250" y="286" name="center"/>
  <anchor x="480" y="572" name="topright"/>
  <outline>
    <contour>
      <point x="0" y="257" type="line"/>
      <point x="235" y="257" type="line"/>
      <point x="235" y="319" type="line"/>
      <point x="0" y="319" type="line"/>
    </contour>
    <component base="d.sc"/>
  </outline>
</glyph>
<glyph name="lslash.sc" format="2">
  <advance width="500"/>
  <anchor x="317" y="0" name="bottom"/>
  <anchor x="181" y="572" name="top"/>
  <anchor x="185" y="286" name="center"/>
  <anchor x="392" y="572" name="topright"/>
  <outline>
    <contour>
      <point x="79" y="192" type="line"/>
      <point x="336" y="370" type="line"/>
      <point x="298" y="424" type="line"/>
      <point x="41" y="247" type="line"/>
    </contour>
    <component base="l.sc" xOffset="30"/>
  </outline>
</glyph>
<glyph name="tbar.sc" format="2">
  <advance width="500"/>
  <anchor x="250" y="0" name="bottom"/>
  <anchor x="250" y="572" name="top"/>
  <anchor x="250" y="286" name="center"/>
  <anchor x="480" y="572" name="topright"/>
  <outline>
    <contour>
      <point x="111" y="248" type="line"/>
      <point x="389" y="248" type="line"/>
      <point x="389" y="315" type="line"/>
      <point x="111" y="315" type="line"/>
    </contour>
    <component base="t.sc"/>
  </outline>
</glyph>
